<!-- Generated with https://svgsprite.com/tools/svg-sprite-generator/
     Add all files in assets/icon, and choose HTML.
-->


<svg display="none">
  <defs>
		<g id="img-icon-door-joina">
			<path xmlns="http://www.w3.org/2000/svg" fill="#4d4d4d" d="M11,1.72V4H3v7.25H7.36L5.64,9.53,6.7,8.47,10.23,12,6.7,15.53,5.64,14.47l1.72-1.72H3V20h8v2.28l10-2.5V4.22Zm8,16.5-6,1.5V4.28l6,1.5Z"/><circle xmlns="http://www.w3.org/2000/svg" cx="15" cy="12" r="1" fill="#4d4d4d"/>
		</g>
		<g id="img-icon-door-leavea">
			<path xmlns="http://www.w3.org/2000/svg" fill="#D40000" d="M8,11a1,1,0,1,0,1,1A1,1,0,0,0,8,11Z"/><path xmlns="http://www.w3.org/2000/svg" fill="#D40000" d="M19.53,8.47,18.47,9.53l1.72,1.72H17V4H12V1.72L2,4.22V19.78l10,2.5V20h5V12.75h3.19l-1.72,1.72,1.06,1.06L23.06,12ZM4,5.78l6-1.5V19.72l-6-1.5Z"/>
		</g>
    
		<g id="img-mute">
			<g xmlns="http://www.w3.org/2000/svg" fill="none" fill-rule="evenodd"><path fill="#4D4D4D" d="M16.5,12 C16.4995712,10.2909166 15.531008,8.7295926 14,7.97 L14,10.18 L16.45,12.63 C16.48,12.43 16.5,12.22 16.5,12 L16.5,12 Z M19,12 C19,12.94 18.8,13.82 18.46,14.64 L19.97,16.15 C20.6494581,14.8724455 21.0032443,13.4469963 21.0000221,12 C21.0000221,7.72 18.01,4.14 14,3.23 L14,5.29 C16.89,6.15 19,8.83 19,12 Z M4.27,3 L3,4.27 L7.73,9 L3,9 L3,15 L7,15 L12,20 L12,13.27 L16.25,17.52 C15.58,18.04 14.83,18.45 14,18.7 L14,20.76 C15.3532634,20.4496963 16.6162667,19.8301743 17.69,18.95 L19.73,21 L21,19.73 L12,10.73 L4.27,3 Z M12,4 L9.91,6.09 L12,8.18 L12,4 Z"/><path d="M0 0H24V24H0z"/></g>
		</g>
		<g id="img-share-screen">
			<g xmlns="http://www.w3.org/2000/svg" fill="none" fill-rule="evenodd"><path fill="#4D4D4D" d="M20,18 C21.1,18 21.99,17.1 21.99,16 L22,6 C22,4.8954305 21.1045695,4 20,4 L4,4 C2.89,4 2,4.89 2,6 L2,16 C2,17.1045695 2.8954305,18 4,18 L0,18 L0,20 L24,20 L24,18 L20,18 Z M13,14.47 L13,12.28 C10.22,12.28 8.39,13.13 7,15 C7.56,12.33 9.11,9.67 13,9.13 L13,7 L17,10.73 L13,14.47 Z"/><path d="M0 0H24V24H0z"/></g>
		</g>
		<g id="img-unmute">
			<g xmlns="http://www.w3.org/2000/svg" fill="none" fill-rule="evenodd"><path fill="#FFFFFF" d="M3,9 L3,15 L7,15 L12,20 L12,4 L7,9 L3,9 Z M16.5,12 C16.4995712,10.2909166 15.531008,8.7295926 14,7.97 L14,16.02 C15.48,15.29 16.5,13.77 16.5,12 Z M14,3.23 L14,5.29 C16.89,6.15 19,8.83 19,12 C19,15.17 16.89,17.85 14,18.71 L14,20.77 C18.01,19.86 21,16.28 21,12 C21,7.72 18.01,4.14 14,3.23 Z"/><path d="M0 0H24V24H0z"/></g>
		</g>
		<g id="img-unshare-screen">
			<g xmlns="http://www.w3.org/2000/svg" fill="none" fill-rule="evenodd"><path fill="#4D4D4D" d="M21.22,18.02 L23.22,20.02 L24,20.02 L24,18.02 L21.22,18.02 Z M21.99,16.02 L22,6.02 C22,4.9154305 21.1045695,4.02 20,4.02 L7.22,4.02 L12.45,9.25 C12.63,9.21 12.81,9.18 13,9.15 L13,7.02 L17,10.75 L15.42,12.22 L20.96,17.76 C21.57,17.43 21.99,16.77 21.99,16.02 L21.99,16.02 Z M2.39,1.73 L1.11,3 L2.65,4.54 C2.25,4.9 2,5.43 2,6.02 L2,16.02 C2,17.1245695 2.8954305,18.02 4,18.02 L0,18.02 L0,20.02 L18.13,20.02 L20.84,22.73 L22.11,21.46 L2.39,1.73 Z M7,15.02 C7.31,13.54 7.92,12.07 9.07,10.96 L10.66,12.55 C9.12,12.93 7.96,13.73 7,15.02 L7,15.02 Z"/><path d="M0 0H24V24H0z"/></g>
		</g>
		<g id="img-video-off">
			<g xmlns="http://www.w3.org/2000/svg" fill="none" fill-rule="evenodd"><path fill="#4D4D4D" d="M21,6.5 L17,10.5 L17,7 C17,6.45 16.55,6 16,6 L9.82,6 L21,17.18 L21,6.5 Z M3.27,2 L2,3.27 L4.73,6 L4,6 C3.45,6 3,6.45 3,7 L3,17 C3,17.55 3.45,18 4,18 L16,18 C16.21,18 16.39,17.92 16.54,17.82 L19.73,21 L21,19.73 L3.27,2 Z"/><path d="M0 0H24V24H0z"/></g>
		</g>
		<g id="img-video-on">
			<g xmlns="http://www.w3.org/2000/svg" fill="none" fill-rule="evenodd"><path fill="#F2F2F2" d="M17,10.5 L17,7 C17,6.45 16.55,6 16,6 L4,6 C3.45,6 3,6.45 3,7 L3,17 C3,17.55 3.45,18 4,18 L16,18 C16.55,18 17,17.55 17,17 L17,13.5 L21,17.5 L21,6.5 L17,10.5 Z"/><path d="M0 0H24V24H0z"/></g>
		</g>
	</defs>
</svg>
